HIERARCHY
ROOT ROOT
{
	OFFSET 0.000000 56.020000 -5.659234
	CHANNELS 6 Xposition Yposition Zposition Xrotation Yrotation Zrotation 
	JOINT C_spine0001_bind_JNT
	{
		OFFSET 0.000000 1.618999 0.000000
		CHANNELS 3 Xrotation Yrotation Zrotation
		JOINT C_spine0002_bind_JNT
		{
			OFFSET 0.000000 4.942001 0.000001
			CHANNELS 3 Xrotation Yrotation Zrotation
			JOINT C_spine0003_bind_JNT
			{
				OFFSET 0.000000 4.942001 -0.000000
				CHANNELS 3 Xrotation Yrotation Zrotation
				JOINT C_neck0001_bind_JNT
				{
					OFFSET 0.000000 17.026009 -0.000000
					CHANNELS 3 Xrotation Yrotation Zrotation
					JOINT C_neck0002_bind_JNT
					{
						OFFSET 0.000000 3.249985 0.000000
						CHANNELS 3 Xrotation Yrotation Zrotation
						JOINT C_head_bind_JNT
						{
							OFFSET 0.000000 5.278008 0.000000
							CHANNELS 3 Xrotation Yrotation Zrotation
							End Site
							{
								OFFSET 0.000000 0.000000 0.000000
							}
						}
					}
				}
				JOINT L_clavicle_bind_JNT
				{
					OFFSET 4.590000 12.067001 0.834000
					CHANNELS 3 Xrotation Yrotation Zrotation
					JOINT L_armUpper0001_bind_JNT
					{
						OFFSET 7.812635 0.512001 -3.452945
						CHANNELS 3 Xrotation Yrotation Zrotation
						JOINT L_armLower0001_bind_JNT
						{
							OFFSET 15.265892 -6.552116 -0.058157
							CHANNELS 3 Xrotation Yrotation Zrotation
							JOINT L_hand0001_bind_JNT
							{
								OFFSET 14.747667 -6.369995 5.049225
								CHANNELS 3 Xrotation Yrotation Zrotation
								End Site
								{
									OFFSET 0.000000 0.000000 0.000000
								}
							}
						}
					}
				}
				JOINT R_clavicle_bind_JNT
				{
					OFFSET -4.590000 12.067001 0.834000
					CHANNELS 3 Xrotation Yrotation Zrotation
					JOINT R_armUpper0001_bind_JNT
					{
						OFFSET -7.812635 0.512001 -3.452945
						CHANNELS 3 Xrotation Yrotation Zrotation
						JOINT R_armLower0001_bind_JNT
						{
							OFFSET -15.265890 -6.552124 -0.058160
							CHANNELS 3 Xrotation Yrotation Zrotation
							JOINT R_hand0001_bind_JNT
							{
								OFFSET -14.746784 -6.369629 5.048937
								CHANNELS 3 Xrotation Yrotation Zrotation
								End Site
								{
									OFFSET 0.000000 0.000000 0.000000
								}
							}
						}
					}
				}
			}
		}
	}
	JOINT C_pelvis0001_bind_JNT
	{
		OFFSET -0.000000 0.000000 0.000000
		CHANNELS 3 Xrotation Yrotation Zrotation
		JOINT L_legUpper0001_bind_JNT
		{
			OFFSET 6.599999 -6.027000 0.539000
			CHANNELS 3 Xrotation Yrotation Zrotation
			JOINT L_legLower0001_bind_JNT
			{
				OFFSET -0.140713 -19.187443 0.040261
				CHANNELS 3 Xrotation Yrotation Zrotation
				JOINT L_foot0001_bind_JNT
				{
					OFFSET -0.132215 -18.028637 -1.138370
					CHANNELS 3 Xrotation Yrotation Zrotation
					JOINT L_foot0002_bind_JNT
					{
						OFFSET 0.007014 -4.693133 9.886524
						CHANNELS 3 Xrotation Yrotation Zrotation
						End Site
						{
							OFFSET 0.000000 0.000000 0.000000
						}
					}
				}
			}
		}
		JOINT R_legUpper0001_bind_JNT
		{
			OFFSET -6.599999 -6.027000 0.539000
			CHANNELS 3 Xrotation Yrotation Zrotation
			JOINT R_legLower0001_bind_JNT
			{
				OFFSET 0.140710 -19.187164 0.040550
				CHANNELS 3 Xrotation Yrotation Zrotation
				JOINT R_foot0001_bind_JNT
				{
					OFFSET 0.132215 -18.028633 -1.138362
					CHANNELS 3 Xrotation Yrotation Zrotation
					JOINT R_foot0002_bind_JNT
					{
						OFFSET -0.007014 -4.693128 9.886505
						CHANNELS 3 Xrotation Yrotation Zrotation
						End Site
						{
							OFFSET 0.000000 0.000000 0.000000
						}
					}
				}
			}
		}
	}
}
MOTION
Frames: 9
Frame Time: 0.033333
5.572349 51.563332 39.722191 0.024132 -24.699850 -0.022485 4.213507 17.394173 -3.276380 -4.780703 1.052369 -0.223806 2.466224 0.966151 -1.109947 14.602654 -3.871766 0.194576 0.206338 0.107496 -0.149244 -9.917093 -7.018133 -1.065247 16.363087 6.785137 23.368994 -16.372034 5.542584 -78.633583 -3.658774 15.073911 -9.596004 2.953512 -13.535399 -23.842121 15.591475 -5.752670 -20.248476 -25.303337 -7.584246 82.450363 1.516989 -22.524483 10.846162 2.124653 14.739447 16.765524 8.166870 15.531468 -4.657955 -8.211254 5.917426 2.947732 8.096581 -0.896947 0.344901 14.254395 -3.136376 -14.889958 -19.079762 -7.151616 15.047435 -9.318317 -3.094391 -5.018239 11.397435 2.398535 -0.529310 20.907084 4.796832 -1.165631 -28.563343 -0.087442 3.987130 
5.626554 51.627136 39.923889 0.029995 -24.581593 -0.016708 4.091104 16.722569 -2.969751 -4.917045 1.025095 -0.208114 2.551625 0.935410 -1.124610 13.972875 -3.706434 0.229584 0.571728 -0.129010 0.036335 -10.291929 -6.728210 -1.051288 16.432114 6.727545 23.614792 -16.380577 5.857137 -78.383629 -3.403150 14.597701 -10.528871 2.753199 -13.608557 -23.429642 15.585564 -5.727471 -20.483908 -24.235456 -7.923207 82.523018 0.905172 -23.452734 9.818007 2.358608 14.797338 16.983341 8.178061 14.918778 -4.544248 -6.933356 5.523169 2.827538 6.781947 0.031937 0.008663 14.288070 -2.674829 -15.235757 -19.084917 -7.412285 15.223697 -9.609248 -3.253074 -5.006307 11.153028 2.328418 -0.568738 21.396389 4.881092 -1.250853 -29.046803 -0.265816 3.940631 
5.682068 51.637665 40.066410 0.010689 -25.056650 -0.022588 3.852005 16.461088 -2.758413 -4.858892 0.970864 -0.300263 2.459274 1.018719 -1.093134 14.082502 -3.713995 0.161505 0.426351 0.002405 -0.039061 -10.445344 -6.385157 -0.905385 16.455633 6.735940 23.800884 -16.420940 5.623746 -78.608620 -3.414853 13.932657 -10.381710 3.092452 -13.405349 -23.606010 15.812604 -5.500926 -20.730337 -23.706699 -8.660101 82.783340 1.405241 -24.569443 8.986628 2.492354 14.977525 16.928171 8.110415 14.800757 -4.322462 -5.977232 5.233028 2.426934 5.913778 0.664270 0.056485 14.044301 -2.446377 -15.370428 -18.654194 -7.223668 15.204478 -9.785021 -3.237708 -5.397485 11.439636 2.242516 -0.414017 21.765078 4.782496 -1.372069 -29.081558 -0.196494 4.378476 
5.776407 51.651215 40.154942 0.021568 -25.504761 -0.018113 3.855153 16.160011 -2.694399 -4.836201 0.896398 -0.183971 2.472160 0.979739 -1.149881 13.683429 -3.568361 0.372158 0.468824 -0.033968 0.021296 -10.641336 -6.490077 -0.796818 16.529835 6.773549 23.808535 -16.682182 5.698573 -78.349098 -3.414027 13.531554 -10.734962 3.230401 -13.301973 -23.564426 15.612220 -5.491672 -20.873135 -22.735092 -8.899638 82.975677 1.102110 -24.787407 8.324364 2.512780 14.774790 17.143049 8.265939 14.713407 -4.415236 -5.592399 4.952987 2.110437 5.484689 1.226454 0.028310 13.647925 -1.986284 -15.266410 -18.401489 -7.315465 15.264632 -10.430597 -3.057549 -5.334228 11.690589 2.259972 -0.146850 21.997080 4.644780 -1.537821 -28.981979 -0.271495 4.501302 
5.819140 51.588284 40.221439 0.021548 -25.959188 -0.023714 3.649773 15.934505 -2.588552 -4.787762 0.792100 -0.270491 2.419980 0.937634 -1.016778 13.812174 -3.700462 0.359050 0.280519 0.020525 0.031272 -11.128365 -6.266164 -0.802755 16.510845 6.859375 23.604731 -17.236906 5.624328 -78.343246 -3.061776 13.454492 -10.563968 3.310711 -13.309011 -23.883312 15.727133 -5.490630 -21.189171 -21.970566 -9.643972 83.200760 1.648666 -24.930552 8.385318 2.603712 15.019312 16.856152 8.112742 14.553160 -4.419986 -5.072189 4.841175 2.124090 5.357381 1.609650 -0.070202 13.260276 -1.651687 -15.216211 -18.098696 -7.142667 15.140114 -10.571165 -2.671888 -5.545669 12.030478 2.018959 0.136422 22.612753 4.705527 -1.861945 -29.133692 -0.427855 5.087475 
5.817299 51.589096 40.264526 0.020317 -26.289429 -0.014756 3.493462 15.561137 -2.490985 -4.818509 0.711238 -0.174255 2.345693 0.835391 -1.109418 13.477384 -3.567484 0.410250 0.560699 -0.086939 0.048890 -11.076350 -6.312452 -0.618851 16.438032 6.755835 23.824623 -17.360081 5.793554 -78.249741 -2.958789 13.537394 -10.789503 3.337441 -13.370689 -23.880030 15.763224 -5.109719 -21.370613 -21.099026 -10.200247 83.359322 1.494060 -25.422394 8.005464 2.506555 15.107505 16.933533 7.983774 14.404881 -4.410036 -4.616618 4.800101 2.181878 5.310411 1.858427 -0.204663 12.678262 -1.092453 -15.157990 -17.689264 -7.198292 14.849940 -10.467203 -2.449901 -5.544302 11.638457 2.130008 0.330199 22.965151 4.525518 -2.062663 -29.173803 -0.588588 5.159495 
5.832990 51.548187 40.224262 0.020781 -26.660707 -0.021604 3.407790 15.287398 -2.352311 -4.863867 0.602000 -0.265850 2.344435 0.799840 -1.087740 13.476241 -3.442832 0.391289 0.498296 -0.016415 -0.026123 -11.282808 -6.137798 -0.538130 16.363152 6.715537 23.752594 -17.590384 5.761104 -78.122070 -2.808197 13.510015 -10.672756 3.648596 -13.387141 -23.877129 15.762476 -4.862914 -21.455980 -20.767967 -10.594861 83.564209 1.841909 -25.766764 7.576347 2.722034 14.913770 17.057421 7.873587 14.314554 -4.315562 -4.394914 4.604317 1.960672 5.191963 2.037919 -0.039147 12.140081 -0.849745 -15.018417 -17.089354 -7.032578 14.555922 -10.570078 -2.322533 -5.696761 11.958095 2.029393 0.645137 23.238274 4.604774 -2.382751 -29.084183 -0.495800 5.220280 
5.886722 51.502327 40.140503 0.015445 -27.026852 -0.021166 3.333834 14.911851 -2.349569 -4.811847 0.572592 -0.199747 2.290108 0.842893 -1.226494 13.481805 -3.284980 0.501667 0.396238 -0.055112 -0.024771 -11.296874 -5.872398 -0.421704 16.241682 6.558557 23.935575 -17.994411 5.692158 -78.063751 -2.693055 13.722200 -10.361396 3.432683 -13.113175 -24.148117 15.691483 -4.824089 -21.396061 -20.492495 -10.749058 83.661896 2.202857 -25.867212 7.469672 2.503785 14.645329 17.364548 7.809525 14.018094 -4.240071 -4.249271 4.437585 1.738619 5.142189 2.237406 -0.077109 11.458128 -0.307252 -14.519801 -16.555481 -6.871870 14.036031 -10.777641 -2.275717 -5.734591 12.057944 2.466366 0.669988 23.021732 4.446507 -2.512380 -28.672043 -0.496666 5.273233 
5.978553 51.450600 40.030731 0.024713 -27.664633 -0.021027 3.200184 14.918391 -2.315763 -4.760908 0.520175 -0.259796 2.311350 0.764090 -1.115964 13.427748 -3.315751 0.567538 0.459077 -0.078758 -0.040145 -11.481609 -5.882666 -0.439315 16.173454 6.612994 23.829782 -18.351265 5.560498 -78.148346 -2.528949 13.682820 -10.141436 3.289408 -13.153566 -24.048267 15.773230 -4.744237 -21.359495 -20.393290 -10.805565 83.559914 2.308436 -25.712317 7.475530 2.530291 14.450591 17.361885 7.730351 14.043073 -4.392289 -4.200023 4.210124 1.809750 5.182386 2.367651 -0.240639 11.073506 -0.087382 -14.206353 -16.152889 -6.720113 13.884973 -10.856185 -2.175149 -5.605697 11.928355 2.424530 0.796139 22.934816 4.506067 -2.593764 -28.103531 -0.447752 5.283213 
